<svg xmlns="http://www.w3.org/2000/svg" width="202.000000pt" height="205.000000pt" viewBox="0 0 202.000000 205.000000" preserveAspectRatio="xMidYMid meet"><g transform="translate(0.000000,205.000000) scale(0.100000,-0.100000)" fill="#000000" stroke="none"><path d="M610 2043 c-303 -30 -510 -121 -583 -258 -21 -37 -22 -56 -25 -278 -3 -192 0 -248 12 -291 42 -142 220 -246 501 -292 l106 -17 -104 -37 c-112 -40 -108 -38 -184 -87 -87 -57 -93 -79 -93 -334 0 -195 2 -217 20 -246 59 -97 294 -170 624 -194 86 -6 163 -8 171 -5 13 4 15 40 15 219 l0 213 -192 12 c-281 17 -275 24 73 82 564 94 851 206 987 382 75 98 77 108 77 418 l0 275 -28 57 c-98 200 -444 341 -926 378 -126 9 -371 11 -451 3z m152 -60 l1 -38 4 38 4 37 80 0 79 0 0 -36 c0 -21 4 -33 10 -29 6 3 10 20 10 37 0 29 2 30 31 24 17 -3 42 -6 55 -6 22 0 24 -4 24 -46 l0 -46 -102 4 -103 3 -6 -60 c-6 -59 -10 -64 -12 -15 -2 18 -9 26 -26 28 -13 2 -28 -1 -34 -7 -8 -8 -3 -11 16 -11 31 0 34 -8 10 -26 -17 -12 -17 -13 0 -19 9 -4 17 -14 17 -22 0 -11 -7 -13 -26 -9 -19 5 -25 3 -22 -6 6 -18 46 -22 64 -8 12 11 14 3 14 -52 l0 -65 -102 -7 c-214 -15 -382 -51 -516 -112 -41 -19 -80 -34 -87 -34 -19 0 -74 67 -96 114 -24 52 -23 91 0 141 l19 40 1 -62 c1 -35 5 -63 11 -63 6 0 10 33 10 79 0 58 4 82 15 91 13 11 15 8 15 -19 0 -17 5 -31 10 -31 6 0 10 17 10 38 0 35 14 62 31 62 4 0 10 -17 12 -37 l4 -38 1 42 c2 30 7 45 21 53 35 18 40 11 44 -57 l3 -68 2 76 2 75 48 17 c64 23 70 22 75 -15 l4 -33 1 37 c2 35 3 37 52 47 28 6 53 11 55 11 3 0 5 -13 5 -30 0 -16 5 -30 10 -30 6 0 10 13 10 29 0 33 14 41 71 41 l39 0 2 -72 2 -73 3 65 c2 36 5 71 8 78 3 7 24 12 60 12 l55 0 2 -37z m394 17 c9 0 14 -11 14 -30 0 -16 5 -30 10 -30 6 0 10 14 10 31 0 28 2 30 28 25 15 -3 46 -8 70 -11 40 -6 42 -8 42 -41 0 -19 5 -34 10 -34 6 0 10 14 10 31 0 31 0 31 43 24 23 -4 45 -9 50 -12 4 -2 7 -27 7 -54 0 -43 -2 -50 -17 -45 -56 16 -185 45 -228 50 -134 17 -125 12 -125 63 l0 46 31 -7 c17 -3 38 -6 45 -6z m360 -66 c19 -5 24 -13 26 -43 l1 -36 4 33 c5 37 5 37 66 16 44 -15 47 -18 48 -52 l2 -37 6 31 c6 30 6 31 39 17 l32 -13 0 -75 c0 -43 4 -75 10 -75 6 0 10 28 10 65 0 36 3 65 6 65 25 0 44 -24 44 -55 0 -19 5 -35 10 -35 6 0 10 12 10 27 0 25 0 26 20 8 11 -10 21 -32 21 -49 l2 -31 4 28 c4 23 7 26 19 16 10 -8 14 -34 14 -85 0 -43 4 -74 10 -74 6 0 10 26 10 58 1 53 2 56 16 37 8 -11 22 -45 31 -75 20 -70 8 -140 -38 -211 l-31 -48 -37 39 c-20 22 -67 53 -104 71 l-67 31 0 86 c0 73 -4 91 -25 128 -26 45 -119 114 -180 134 -34 11 -35 13 -35 67 0 46 3 54 16 49 9 -3 27 -9 40 -12z m-531 -53 c78 -36 115 -95 115 -184 0 -100 -68 -177 -165 -185 l-55 -4 0 189 c0 104 3 193 7 196 12 13 57 7 98 -12z m217 -8 c28 -5 28 -7 30 -82 l2 -76 3 73 c4 72 4 72 33 72 57 0 80 -16 82 -57 l1 -38 4 38 c2 20 7 37 10 37 4 0 30 -8 60 -17 l53 -17 0 -78 c0 -45 4 -78 10 -78 6 0 10 30 10 70 0 39 2 70 4 70 23 0 36 -17 36 -46 0 -39 17 -46 22 -9 3 24 4 25 26 10 19 -14 22 -26 24 -93 l2 -77 5 70 6 70 22 -35 c39 -60 27 -114 -39 -177 -40 -39 -155 -97 -177 -89 -9 2 -49 16 -90 30 -77 27 -228 56 -293 56 -21 0 -38 2 -38 4 0 2 20 23 44 47 89 89 87 223 -6 310 l-33 31 79 -6 c43 -4 92 -10 108 -13z m-350 -320 l3 -68 105 -7 c139 -10 279 -32 363 -58 37 -11 67 -23 67 -25 0 -18 -232 -55 -405 -64 -332 -17 -618 28 -774 122 l-34 20 44 23 c131 68 339 111 596 123 l32 1 3 -67z m-802 -39 c0 -24 5 -44 10 -44 6 0 10 12 10 27 0 25 0 26 20 8 16 -15 20 -32 22 -94 l2 -76 5 67 6 67 33 -20 c26 -17 32 -28 34 -57 l1 -37 4 33 c2 17 6 32 9 32 3 0 23 -9 44 -20 l40 -20 2 -78 2 -77 3 73 4 73 32 -7 c68 -14 77 -21 78 -61 1 -26 3 -30 6 -13 8 49 7 49 90 31 77 -16 78 -16 84 -51 l6 -35 2 35 1 35 65 -3 65 -4 0 -74 c0 -48 4 -73 10 -69 6 3 10 35 10 71 l0 64 70 0 70 0 0 -36 c0 -21 4 -33 10 -29 6 3 10 19 10 34 0 33 17 41 98 41 51 0 52 -1 52 -29 0 -17 5 -33 10 -36 6 -4 10 8 10 29 0 39 0 39 93 51 l47 6 2 -73 2 -73 3 73 c3 46 8 74 16 77 59 18 67 16 67 -14 0 -16 5 -33 10 -36 6 -4 10 9 10 33 0 38 1 39 45 49 l45 10 2 -36 1 -36 4 38 c4 32 9 39 40 52 19 8 39 15 44 15 4 0 10 -30 12 -67 l3 -68 2 76 c2 70 4 77 27 87 24 11 25 10 26 -21 2 -31 2 -30 8 7 4 24 14 44 29 54 l22 14 0 -61 c0 -91 19 -74 23 22 1 45 3 10 4 -78 1 -88 -2 -171 -6 -185 -5 -19 -24 -32 -83 -57 -109 -45 -273 -90 -413 -113 -66 -11 -187 -32 -270 -48 -168 -30 -244 -32 -393 -6 -243 41 -414 138 -458 261 -16 46 -20 358 -4 348 6 -3 10 -26 10 -51z m1715 -93 c22 -10 57 -37 78 -60 l39 -43 -23 -24 c-26 -28 -157 -120 -161 -113 -2 2 -2 61 0 132 2 90 7 127 15 127 7 0 30 -9 52 -19z m205 -392 c-41 -109 -133 -195 -295 -274 -170 -83 -339 -126 -862 -219 -79 -14 -162 -33 -185 -41 -37 -12 -50 -12 -108 2 -99 24 -207 78 -230 116 -11 18 -19 39 -19 47 1 11 3 10 6 -2 8 -32 23 -19 23 21 0 21 6 44 14 50 12 10 15 7 19 -21 3 -30 4 -29 5 8 1 26 7 44 17 47 11 5 15 -8 18 -66 l3 -72 2 77 c2 65 5 79 21 88 30 16 39 12 44 -17 3 -23 4 -22 6 8 0 23 7 39 17 43 27 10 34 7 34 -19 0 -14 5 -25 10 -25 6 0 10 14 10 30 0 23 6 33 23 39 19 7 22 5 25 -20 5 -41 22 -36 22 6 0 30 3 35 25 35 23 0 24 -3 28 -67 l3 -68 2 72 c2 70 2 71 33 82 46 16 49 14 49 -19 0 -16 5 -30 10 -30 6 0 10 16 10 35 0 19 4 35 9 35 5 0 22 3 39 6 29 6 31 4 35 -27 l4 -34 1 38 c2 28 6 37 20 37 9 0 27 3 40 6 19 6 22 2 23 -27 l2 -34 4 30 c6 35 18 45 56 45 27 0 27 0 27 -70 0 -40 4 -70 10 -70 6 0 10 32 10 75 0 71 1 75 23 75 12 0 32 3 45 6 19 5 22 2 22 -19 0 -14 5 -29 10 -32 6 -4 10 6 10 24 0 31 4 33 68 46 31 6 32 5 33 -27 l2 -33 6 35 c4 25 12 36 31 41 52 15 68 11 73 -18 4 -28 4 -28 6 3 1 27 6 32 51 46 l50 16 0 -69 c0 -39 4 -69 10 -69 6 0 10 30 10 70 0 58 3 71 19 80 29 15 41 12 41 -9 0 -11 5 -23 10 -26 6 -4 10 6 10 24 0 24 7 34 30 46 29 15 30 15 30 -9 0 -14 5 -28 10 -31 6 -4 10 8 10 28 0 27 5 36 25 45 34 16 35 15 35 -7 0 -11 5 -23 10 -26 6 -4 10 8 10 29 0 29 5 38 30 51 l30 16 0 -60 c0 -90 19 -85 22 5 2 51 7 79 16 82 7 2 12 -5 12 -17 0 -12 5 -21 10 -21 6 0 10 15 10 34 0 18 7 39 15 46 13 10 15 9 15 -9 0 -11 5 -21 10 -21 6 0 10 12 10 28 0 15 7 36 15 46 14 18 15 14 15 -42 0 -35 4 -62 10 -62 6 0 10 30 10 70 0 49 6 81 18 103 17 32 17 31 20 -129 2 -142 0 -169 -18 -215z m-1675 -501 c4 12 10 22 14 22 16 0 31 -26 32 -54 2 -31 2 -31 6 -3 5 31 4 31 38 15 20 -9 25 -18 25 -45 0 -20 4 -32 10 -28 6 3 10 17 10 31 0 26 1 27 24 18 13 -5 16 -22 16 -80 0 -43 4 -74 10 -74 6 0 10 30 10 70 0 39 3 70 6 70 3 0 25 -5 50 -11 41 -11 44 -14 44 -45 0 -19 5 -34 10 -34 6 0 10 14 10 30 0 26 4 30 28 30 57 0 72 -10 74 -49 l1 -36 4 39 4 38 47 -7 c26 -4 48 -8 49 -9 9 -9 2 -89 -10 -121 -31 -77 -17 -148 40 -215 l37 -43 -79 7 c-176 16 -361 64 -453 119 -79 47 -82 58 -81 254 1 104 5 153 9 128 6 -35 8 -37 15 -17z m604 -115 c0 -5 -13 -18 -30 -31 l-29 -24 0 31 c0 28 3 31 30 31 17 0 30 -3 29 -7z m141 -193 l0 -190 -44 0 c-80 0 -131 31 -167 102 -37 73 -18 180 43 234 38 35 60 43 116 44 l52 0 0 -190z"></path><path d="M690 1870 c-10 -6 -11 -10 -2 -10 7 0 12 -15 12 -40 0 -22 -4 -40 -10 -40 -5 0 -10 -4 -10 -10 0 -5 16 -10 35 -10 19 0 35 5 35 10 0 6 -4 10 -10 10 -5 0 -10 23 -10 50 0 51 -9 60 -40 40z"></path><path d="M381 1798 l-18 -43 23 -3 c12 -2 25 -11 27 -20 7 -31 24 30 19 71 -6 50 -28 48 -51 -5z m25 -25 c-11 -11 -17 4 -9 23 7 18 8 18 11 1 2 -10 1 -21 -2 -24z"></path><path d="M308 1814 c-3 -3 -3 -23 -1 -46 4 -28 2 -43 -8 -48 -21 -14 -3 -23 30 -15 29 6 44 25 21 25 -5 0 -10 20 -10 45 0 31 -4 45 -13 45 -8 0 -16 -3 -19 -6z"></path><path d="M173 1752 c-6 -4 -14 -22 -18 -41 -6 -29 -5 -33 9 -28 10 4 16 1 16 -9 0 -8 -7 -17 -15 -20 -19 -8 -20 -24 -1 -24 25 0 38 74 14 83 -10 3 -10 8 1 21 15 18 12 29 -6 18z"></path><path d="M121 1715 c-1 -5 -3 -36 -4 -67 -1 -42 1 -54 9 -45 7 8 9 31 4 67 -4 30 -8 51 -9 45z"></path><path d="M1768 1669 c6 -7 12 -27 12 -45 0 -18 -6 -34 -12 -37 -9 -3 -4 -11 12 -25 14 -11 25 -20 26 -19 0 1 -2 31 -5 67 -5 55 -9 65 -26 68 -16 3 -18 1 -7 -9z"></path><path d="M1823 1615 c-8 -21 3 -83 18 -101 23 -28 39 -16 39 29 0 61 -41 113 -57 72z m37 -56 c0 -24 -4 -38 -10 -34 -5 3 -10 24 -10 46 0 24 4 38 10 34 6 -3 10 -24 10 -46z"></path><path d="M1277 1703 c-10 -10 -8 -25 2 -19 5 3 14 -1 21 -9 11 -13 9 -20 -9 -38 -25 -28 -27 -43 -5 -51 24 -9 44 -7 44 4 0 6 -7 10 -15 10 -14 0 -14 3 0 31 15 28 15 33 0 55 -16 24 -26 29 -38 17z"></path><path d="M1356 1650 c-19 -33 -16 -60 8 -60 7 0 17 -10 20 -22 7 -22 7 -22 15 -3 10 25 0 107 -14 112 -6 2 -19 -11 -29 -27z m24 -25 c0 -8 -4 -15 -10 -15 -5 0 -7 7 -4 15 4 8 8 15 10 15 2 0 4 -7 4 -15z"></path><path d="M137 1269 c4 -26 2 -44 -6 -48 -8 -5 -5 -13 10 -27 21 -18 22 -18 16 -1 -4 10 -7 41 -7 68 0 27 -4 49 -9 49 -5 0 -7 -18 -4 -41z"></path><path d="M170 1281 c0 -6 5 -13 10 -16 6 -4 8 -28 5 -58 l-5 -52 15 50 c18 63 19 58 -5 73 -11 7 -20 8 -20 3z"></path><path d="M1391 1221 c-23 -23 -27 -61 -11 -92 23 -43 60 -10 60 54 0 48 -22 65 -49 38z m27 -48 c-3 -42 -21 -51 -26 -15 -4 29 4 52 18 52 7 0 10 -15 8 -37z"></path><path d="M345 1210 c-3 -5 -1 -10 4 -10 6 0 11 -18 11 -41 0 -27 -4 -38 -11 -33 -7 4 -10 1 -7 -7 5 -15 58 -32 58 -19 0 5 -4 12 -10 15 -5 3 -10 28 -10 56 0 36 -4 49 -14 49 -8 0 -18 -4 -21 -10z"></path><path d="M1303 1213 c-21 -8 -14 -25 7 -18 15 5 20 2 20 -13 0 -11 -9 -31 -20 -45 -28 -35 -25 -44 10 -39 35 5 51 22 20 22 -19 0 -20 1 -4 24 28 44 8 86 -33 69z"></path><path d="M421 1173 c2 -15 0 -34 -4 -40 -12 -18 11 -53 34 -53 22 0 35 23 23 42 -4 6 -8 26 -8 43 -1 24 -6 31 -24 33 -21 3 -23 0 -21 -25z m39 -8 c0 -8 -4 -15 -10 -15 -5 0 -10 7 -10 15 0 8 5 15 10 15 6 0 10 -7 10 -15z m-2 -53 c2 -7 -3 -12 -12 -12 -9 0 -16 7 -16 16 0 17 22 14 28 -4z"></path><path d="M820 1139 c-11 -8 -12 -12 -2 -16 14 -6 17 -73 2 -73 -5 0 -10 -4 -10 -10 0 -5 16 -10 35 -10 19 0 35 5 35 10 0 6 -4 10 -10 10 -5 0 -10 23 -10 50 0 51 -9 61 -40 39z"></path><path d="M901 1132 c-12 -23 4 -52 30 -52 28 0 19 -23 -12 -31 -22 -6 -22 -7 -5 -14 41 -17 79 42 58 90 -14 30 -56 34 -71 7z m49 -17 c0 -8 -7 -15 -15 -15 -8 0 -15 7 -15 15 0 8 7 15 15 15 8 0 15 -7 15 -15z"></path><path d="M1863 1124 c-18 -14 -33 -31 -33 -37 0 -8 4 -7 12 1 21 21 26 13 17 -25 -11 -49 -11 -63 0 -63 5 0 12 24 16 53 4 28 11 62 16 75 10 27 11 27 -28 -4z"></path><path d="M1540 890 c-26 -26 -27 -85 -2 -99 26 -14 62 13 62 45 0 19 -5 24 -25 24 -14 0 -25 5 -25 10 0 6 11 15 25 20 30 11 32 20 5 20 -11 0 -29 -9 -40 -20z m38 -67 c-4 -22 -22 -20 -26 1 -2 10 3 16 13 16 10 0 15 -7 13 -17z"></path><path d="M1110 821 c-19 -5 -26 -14 -28 -39 -3 -28 -1 -32 20 -29 29 3 32 -26 3 -31 -36 -7 -41 -22 -7 -22 40 0 72 41 52 65 -7 8 -21 15 -32 15 -10 0 -16 5 -13 10 3 6 15 10 26 10 10 0 19 7 19 15 0 16 -2 17 -40 6z"></path><path d="M739 752 c-13 -2 -59 -79 -59 -98 0 -4 10 -4 22 -1 14 4 26 0 34 -11 11 -15 13 -15 22 8 14 37 1 106 -19 102z m-9 -57 c0 -8 -4 -15 -10 -15 -5 0 -7 7 -4 15 4 8 8 15 10 15 2 0 4 -7 4 -15z"></path><path d="M427 654 c-14 -14 -7 -25 13 -19 24 8 26 -7 4 -26 -14 -12 -14 -14 6 -21 25 -9 18 -28 -10 -28 -10 0 -22 -4 -25 -10 -9 -15 51 -12 63 3 6 6 9 32 8 57 -2 40 -5 45 -27 48 -14 2 -28 0 -32 -4z"></path><path d="M521 301 c-9 -6 -10 -11 -2 -15 14 -9 15 -76 1 -76 -5 0 -10 -4 -10 -10 0 -5 16 -10 35 -10 19 0 35 5 35 10 0 6 -4 10 -9 10 -6 0 -11 21 -13 47 -3 48 -13 59 -37 44z"></path></g></svg>